<svg xmlns="http://www.w3.org/2000/svg" width="346.108" height="75.333" viewBox="0 0 346.108 75.333">
  <g id="LogoHorizontal" transform="translate(-107.833 -116.667)">
    <g id="Grupo_503" data-name="Grupo 503" transform="translate(107.833 116.667)">
      <g id="Grupo_504" data-name="Grupo 504" transform="translate(138.515 7.084)">
        <path id="Trazado_973" data-name="Trazado 973" d="M172.323,681.248h-14.3v20.278H152.5v-46.8h22.422v4.42h-16.9v17.678h14.3Z" transform="translate(-152.5 -653.629)" fill="#1a70b6"/>
        <path id="Trazado_974" data-name="Trazado 974" d="M245.477,729.394V694.3h4.744l.2,4.939a10.286,10.286,0,0,1,3.315-4.355,7.57,7.57,0,0,1,4.485-1.43q.909,0,1.56.065a6.841,6.841,0,0,1,1.56.39l-1.3,4.874c-.389-.086-.791-.162-1.2-.228a9.049,9.049,0,0,0-1.4-.1,4.724,4.724,0,0,0-2.308.552,6.318,6.318,0,0,0-1.82,1.528,12.042,12.042,0,0,0-1.462,2.242,26.076,26.076,0,0,0-1.171,2.632v23.982Z" transform="translate(-219.415 -681.498)" fill="#1a70b6"/>
        <path id="Trazado_975" data-name="Trazado 975" d="M330.952,723.146a15.121,15.121,0,0,1-4.745,4.615,13.867,13.867,0,0,1-7.6,1.95,15.032,15.032,0,0,1-5.784-1.072,11.686,11.686,0,0,1-4.485-3.282,15.526,15.526,0,0,1-2.925-5.557,26.962,26.962,0,0,1-1.04-7.961,29.859,29.859,0,0,1,1.072-8.514,16.538,16.538,0,0,1,2.99-5.882,11.625,11.625,0,0,1,4.485-3.38,15.1,15.1,0,0,1,11.179,0,9.546,9.546,0,0,1,4.062,3.445,17.254,17.254,0,0,1,2.437,6.077,42.543,42.543,0,0,1,.814,8.969H309.7a23.367,23.367,0,0,0,.812,6.207,11.282,11.282,0,0,0,1.982,4,7.072,7.072,0,0,0,2.893,2.145,9.6,9.6,0,0,0,3.542.65,7.827,7.827,0,0,0,2.827-.487,9.557,9.557,0,0,0,2.242-1.2,9.144,9.144,0,0,0,1.69-1.592,13.157,13.157,0,0,0,1.169-1.657Zm-12.544-26.127a7.149,7.149,0,0,0-5.849,2.729q-2.211,2.73-2.73,8.644h16.184a26.756,26.756,0,0,0-.682-5.362,10.156,10.156,0,0,0-1.527-3.51A5.7,5.7,0,0,0,321.5,697.6,7.615,7.615,0,0,0,318.408,697.019Z" transform="translate(-261.8 -681.164)" fill="#1a70b6"/>
        <path id="Trazado_976" data-name="Trazado 976" d="M442.25,723.146a15.128,15.128,0,0,1-4.744,4.615,13.871,13.871,0,0,1-7.6,1.95,15.035,15.035,0,0,1-5.784-1.072,11.694,11.694,0,0,1-4.485-3.282,15.527,15.527,0,0,1-2.924-5.557,26.963,26.963,0,0,1-1.04-7.961,29.822,29.822,0,0,1,1.072-8.514,16.5,16.5,0,0,1,2.99-5.882,11.615,11.615,0,0,1,4.485-3.38,15.1,15.1,0,0,1,11.178,0,9.535,9.535,0,0,1,4.062,3.445,17.232,17.232,0,0,1,2.438,6.077,42.571,42.571,0,0,1,.812,8.969H421a23.438,23.438,0,0,0,.812,6.207,11.281,11.281,0,0,0,1.983,4,7.07,7.07,0,0,0,2.892,2.145,9.606,9.606,0,0,0,3.542.65,7.82,7.82,0,0,0,2.827-.487,9.566,9.566,0,0,0,2.243-1.2,9.111,9.111,0,0,0,1.689-1.592,13.175,13.175,0,0,0,1.17-1.657Zm-12.543-26.127a7.151,7.151,0,0,0-5.85,2.729q-2.209,2.73-2.729,8.644H437.31a26.676,26.676,0,0,0-.682-5.362,10.14,10.14,0,0,0-1.527-3.51,5.7,5.7,0,0,0-2.307-1.918A7.619,7.619,0,0,0,429.707,697.019Z" transform="translate(-341.902 -681.164)" fill="#1a70b6"/>
        <g id="Grupo_503-2" data-name="Grupo 503" transform="translate(0 0)">
          <path id="Trazado_977" data-name="Trazado 977" d="M554.877,650.8,549.5,686.746l-6.637-29.9h-8.841L526.884,687.1l-5.466-36.3h-7.9l8.167,49h8.882l7.633-31.23,7.4,31.23h8.434l8.167-49Z" transform="translate(-412.322 -650.801)" fill="#123655"/>
          <path id="Trazado_978" data-name="Trazado 978" d="M702.9,692.387a11.6,11.6,0,0,0-4.052-2.447,16.219,16.219,0,0,0-5.579-.88,14.658,14.658,0,0,0-8.28,2.265,13.966,13.966,0,0,0-5.076,6.059l-.471,1.06,6.872,2.636.385-1.051a7.6,7.6,0,0,1,2.456-3.561,6.376,6.376,0,0,1,3.984-1.175c2.076,0,3.478.525,4.284,1.6a7.375,7.375,0,0,1,1.309,4.509v1.852c-6.7.232-11.521,1.44-14.708,3.682a11.561,11.561,0,0,0-5.181,9.935,11.071,11.071,0,0,0,1.1,5.12,10.423,10.423,0,0,0,2.8,3.447,11.08,11.08,0,0,0,3.822,1.948,14.837,14.837,0,0,0,4.106.6,13.013,13.013,0,0,0,6.423-1.441,13.689,13.689,0,0,0,2.267-1.59l.158,2.382h6.617V700.625a12.855,12.855,0,0,0-.785-4.512A9.87,9.87,0,0,0,702.9,692.387Zm-4.169,17.17v8.84a12.749,12.749,0,0,1-2.836,2.271,7.4,7.4,0,0,1-3.8.954,6.686,6.686,0,0,1-4.122-1.247c-1.033-.761-1.535-2.034-1.535-3.891a5.347,5.347,0,0,1,2.949-4.988C691.388,710.37,694.529,709.719,698.736,709.557Z" transform="translate(-531.311 -678.335)" fill="#123655"/>
          <path id="Trazado_979" data-name="Trazado 979" d="M357.967,659.289,345.093,671.1l4.512,1.41-6.668,24.536-8.615-28.439h-7.792l12.087,37.3.37,1.482a3.668,3.668,0,0,1-.373,3.171,2.532,2.532,0,0,1-.908.938,2.133,2.133,0,0,1-.476.168H152.5V718H336.559a4.691,4.691,0,0,0,.672-.032,8.361,8.361,0,0,0,6.714-3.535,16.046,16.046,0,0,0,2.064-3.979c.552-1.5,1.1-3.236,1.62-5.155l8.65-30.7,3.813,1.192Z" transform="translate(-152.5 -656.91)" fill="#123655"/>
        </g>
      </g>
      <g id="Grupo_509" data-name="Grupo 509">
        <path id="Trazado_980" data-name="Trazado 980" d="M246.544,200.695l11.514-.522,19.722-.894s5.138-15.806-11.149-22.665h0V176.6c-.392-10.018-.8-20.5-.827-20.834h.008l-.008-.017v-.012H265.8c-.146-.313-3.467-7.1-15.158-9.641-.161-.035-.315-.074-.473-.11.159.036.312.075.473.11l.186-6.824-32.5-4.447L153,156.006v25.2l1.892.52a3.116,3.116,0,0,0-1.083,1.554,5.273,5.273,0,0,0-.237,2.255c.222,2.143,1.571,3.758,3.013,3.608a2.707,2.707,0,0,0,2.078-2.3c0,.217,0,.431.023.653.286,2.751,2.018,4.825,3.868,4.633,1.311-.136,2.329-1.373,2.71-3.061-.006,3.2,1.677,5.8,3.829,5.861,1.584.043,2.986-1.307,3.685-3.295a8.488,8.488,0,0,0,.468-2.579,8.6,8.6,0,0,0-.256-2.36l21.321,5.86a9.776,9.776,0,0,0-.216,1.8c-.1,3.718,1.844,6.787,4.346,6.855,1.945.053,3.649-1.728,4.36-4.27-.057,4.014,2.057,7.3,4.769,7.379,2.621.072,4.842-2.886,5.137-6.7l5.43,1.493.33-12.1-.332,12.157,1.878.91c.5-4.2,2.989-7.39,5.9-7.311,3.181.087,5.654,4.024,5.524,8.794a12.457,12.457,0,0,1-.365,2.679,12.457,12.457,0,0,0,.365-2.679c.13-4.77-2.343-8.707-5.524-8.794-2.916-.079-5.407,3.106-5.9,7.311-.045.383-.08.771-.091,1.169-.13,4.77,2.343,8.707,5.524,8.794,2.286.062,4.311-1.887,5.32-4.756h0s2.878.815,3.747.926h0l12.995-.6,1.244-.057-1.244.057c.989,2.183,2.641,3.636,4.556,3.688,2.116.058,4.007-1.608,5.078-4.13l18.455-.846s1.94-.348,2.18-5.044l-19.722.894Z" transform="translate(-153 -134.825)" fill="#21a9e0"/>
        <g id="Grupo_508" data-name="Grupo 508" transform="translate(0.007 0.12)">
          <path id="Trazado_981" data-name="Trazado 981" d="M425.169,432.421l17.7,2.323.076-.021-17.78-2.309Z" transform="translate(-379.276 -382.346)" fill="none"/>
          <path id="Trazado_982" data-name="Trazado 982" d="M636.469,248.867l0,.936h0Z" transform="translate(-554.942 -229.754)" fill="#f39b13"/>
          <path id="Trazado_983" data-name="Trazado 983" d="M718.014,556.777c2.116.058,4.007-1.608,5.078-4.13l-9.634.442C714.447,555.272,716.1,556.725,718.014,556.777Z" transform="translate(-618.947 -482.303)" fill="#123655"/>
          <path id="Trazado_984" data-name="Trazado 984" d="M826.695,383.263s0-.009,0-.014l-.027,0Z" transform="translate(-713.064 -341.473)" fill="#e88c15"/>
          <path id="Trazado_985" data-name="Trazado 985" d="M821.89,259.532h-.005l.006.013Z" transform="translate(-709.088 -238.62)" fill="#e88c15"/>
          <path id="Trazado_986" data-name="Trazado 986" d="M531.932,446.278Z" transform="translate(-468.034 -393.873)" fill="#f39b13"/>
          <path id="Trazado_987" data-name="Trazado 987" d="M450.409,488.559c0-.007,0-.014,0-.021l-.005.019Z" transform="translate(-400.255 -429.006)" fill="#d45415"/>
          <path id="Trazado_988" data-name="Trazado 988" d="M531.932,446.278Z" transform="translate(-468.034 -393.873)" fill="#d45415"/>
          <path id="Trazado_989" data-name="Trazado 989" d="M531.932,445.82h0l0-.093h0Z" transform="translate(-468.034 -393.415)" fill="#d45415"/>
          <path id="Trazado_990" data-name="Trazado 990" d="M821.929,259.624l-.008-.017s0,.014,0,.017Z" transform="translate(-709.118 -238.683)" fill="#e88c15"/>
          <path id="Trazado_991" data-name="Trazado 991" d="M826.828,383.249Z" transform="translate(-713.198 -341.473)" fill="#f39b13"/>
          <g id="Grupo_505" data-name="Grupo 505" transform="translate(81.528 40.775)">
            <path id="Trazado_992" data-name="Trazado 992" d="M668.577,378.329l-.027-.011.027,0c-1.084-1.011-9.07-1.1-16.8-.935-7.757.165-15.254.586-15.254.586v.006l0,1.748-.054,23.233.169-.007,11.846-.537L660,401.888l19.722-.894S684.864,385.189,668.577,378.329Z" transform="translate(-636.474 -377.315)" fill="#1898d4"/>
          </g>
          <path id="Trazado_993" data-name="Trazado 993" d="M636.466,247.487v0Z" transform="translate(-554.939 -228.607)" fill="#e88c15"/>
          <path id="Trazado_994" data-name="Trazado 994" d="M594.137,196.672s0-.016,0-.017l-.006-.013c-.146-.313-3.467-7.1-15.158-9.641-.215-.047-.411-.1-.632-.147l-30.411-2.97s11.437,5.848,14.932,10.726v.233l0,.936.049,21.384v-.006s7.5-.421,15.254-.586c7.729-.165,15.715-.076,16.8.935C594.571,207.489,594.16,197.011,594.137,196.672Z" transform="translate(-481.332 -175.731)" fill="#21a9e0"/>
          <rect id="Rectángulo_111" data-name="Rectángulo 111" height="0.002" transform="translate(81.527 18.879)" fill="#e88c15"/>
          <path id="Trazado_995" data-name="Trazado 995" d="M579.206,241.078l-11.514.522-11.846.537-.169.007.055-22.3-.055-24.017,0-1.217-.23-.307h0v0l-.008-.01h0l-.02-.026v0c-3.763-4.806-14.672-10.385-14.672-10.385l.019,2.057-1.145,41.972-.332,12.157,1.878.909c.5-4.2,2.989-7.39,5.9-7.31,3.181.087,5.654,4.024,5.524,8.794a12.254,12.254,0,0,1-.676,3.723s2.878.815,3.748.926h0l12.994-.6,9.634-.442,18.455-.846s1.94-.348,2.18-5.044Z" transform="translate(-474.147 -175.73)" fill="#1a70b6"/>
          <g id="Grupo_506" data-name="Grupo 506" transform="translate(94.33 49.24)">
            <path id="Trazado_996" data-name="Trazado 996" d="M733.377,427.512l-1.7.1-19.3,1.168c3.122,4.564,1.009,10.608.536,11.81l8.461-.35,3.418-.142,9.13-.378S737.044,432.615,733.377,427.512Z" transform="translate(-712.382 -427.512)" fill="#1a70b6"/>
          </g>
          <path id="Trazado_997" data-name="Trazado 997" d="M636.7,382.586" transform="translate(-555.136 -340.922)" fill="#1a70b6"/>
          <g id="Grupo_507" data-name="Grupo 507" transform="translate(0 0)">
            <path id="Trazado_998" data-name="Trazado 998" d="M223.063,432c.022.207.033.412.037.614a7.334,7.334,0,0,1,.967-2.532l-1.7-.468a6.48,6.48,0,0,1,.341.812A7.145,7.145,0,0,1,223.063,432Z" transform="translate(-210.674 -380.021)" fill="none"/>
            <path id="Trazado_999" data-name="Trazado 999" d="M183.036,421c.011.109.006.213.011.321a5.641,5.641,0,0,1,.356-1.1,4.34,4.34,0,0,1,.7-1.119l-1.95-.536a4.824,4.824,0,0,1,.718,1.562A5.681,5.681,0,0,1,183.036,421Z" transform="translate(-177.243 -370.832)" fill="none"/>
            <path id="Trazado_1000" data-name="Trazado 1000" d="M216.944,187.8l1.425-52.262-65.327,21.181v23.535l63.9,7.689Z" transform="translate(-153.042 -135.535)" fill="#123655"/>
            <path id="Trazado_1001" data-name="Trazado 1001" d="M168.042,418.224c.025-.208.057-.413.1-.613,0-.2-.016-.407-.037-.614a7.144,7.144,0,0,0-.357-1.574,6.48,6.48,0,0,0-.341-.812c-.729-1.457-1.917-2.377-3.17-2.247a2.568,2.568,0,0,0-1.661.919,4.342,4.342,0,0,0-.7,1.119,5.644,5.644,0,0,0-.356,1.1c-.005-.107,0-.212-.011-.321a5.679,5.679,0,0,0-.166-.876,4.824,4.824,0,0,0-.718-1.562,2.4,2.4,0,0,0-2.129-1.17,1.871,1.871,0,0,0-.887.341,3.114,3.114,0,0,0-1.083,1.554,5.274,5.274,0,0,0-.238,2.255c.222,2.143,1.571,3.758,3.013,3.608a2.707,2.707,0,0,0,2.078-2.3c0,.217,0,.431.024.654.286,2.751,2.017,4.825,3.868,4.633,1.311-.136,2.329-1.373,2.711-3.061,0-.077,0-.153,0-.231C167.986,418.758,168.01,418.489,168.042,418.224Z" transform="translate(-155.711 -365.015)" fill="#123655"/>
            <path id="Trazado_1002" data-name="Trazado 1002" d="M450.409,488.559c0-.007,0-.014,0-.021l-.005.019Z" transform="translate(-400.255 -429.006)" fill="#123655"/>
            <path id="Trazado_1003" data-name="Trazado 1003" d="M415.362,458.667c.111-4.081-2.025-7.45-4.771-7.525-2.168-.059-4.063,1.957-4.821,4.815,0,.007,0,.014,0,.021l-.005,0,.005-.019c.01-3.6-1.9-6.537-4.339-6.608h-.005c-1.853-.051-3.49,1.563-4.256,3.913l-.006.017c-.092.284-.17.579-.236.882a9.775,9.775,0,0,0-.215,1.8c-.1,3.718,1.844,6.787,4.346,6.855,1.945.053,3.649-1.728,4.36-4.27-.057,4.014,2.057,7.3,4.769,7.379,2.621.072,4.842-2.886,5.137-6.7.006-.072.012-.144.016-.217C415.348,458.889,415.359,458.779,415.362,458.667Z" transform="translate(-355.616 -396.424)" fill="#123655"/>
            <path id="Trazado_1004" data-name="Trazado 1004" d="M555.855,479.081c-2.916-.079-5.407,3.106-5.9,7.311-.045.383-.08.771-.091,1.169-.13,4.77,2.343,8.707,5.524,8.794,2.286.062,4.31-1.887,5.32-4.756a12.257,12.257,0,0,0,.676-3.724C561.509,483.1,559.036,479.168,555.855,479.081Z" transform="translate(-482.934 -421.142)" fill="#123655"/>
            <path id="Trazado_1005" data-name="Trazado 1005" d="M229.926,421.008a3.594,3.594,0,0,0-3.027,1.919,7.334,7.334,0,0,0-.967,2.532c-.038.2-.071.4-.1.613-.031.265-.056.534-.063.81,0,.077,0,.154,0,.231-.006,3.2,1.677,5.8,3.829,5.861,1.584.043,2.986-1.307,3.685-3.295a8.487,8.487,0,0,0,.468-2.579,8.6,8.6,0,0,0-.256-2.36C232.946,422.588,231.574,421.053,229.926,421.008Z" transform="translate(-213.506 -372.864)" fill="#123655"/>
          </g>
          <path id="Trazado_1006" data-name="Trazado 1006" d="M218.369,135.535,216.944,187.8l0,.143-63.9-7.689v1.666l1.892.52a1.871,1.871,0,0,1,.887-.341,2.4,2.4,0,0,1,2.13,1.17l1.95.536a2.568,2.568,0,0,1,1.661-.919c1.254-.13,2.441.789,3.17,2.247l1.7.468a3.594,3.594,0,0,1,3.027-1.919c1.647.045,3.02,1.58,3.571,3.732l21.321,5.86c.066-.3.144-.6.236-.882l.006-.017c.766-2.351,2.4-3.964,4.256-3.913h.005c2.443.071,4.349,3.005,4.339,6.608.759-2.858,2.654-4.874,4.822-4.815,2.746.075,4.882,3.444,4.77,7.525,0,.112-.014.222-.02.333,0,.073-.011.145-.016.217l5.43,1.492.33-12.1,1.145-41.972-.019-2.057,30.411,2.97c.221.044.417.1.632.147l.186-6.824Z" transform="translate(-153.042 -135.535)" fill="#1898d4"/>
          <path id="Trazado_1007" data-name="Trazado 1007" d="M570.582,278.978l-8.946-2.344v-11.94l8.946,1.977Z" transform="translate(-492.728 -242.913)" fill="#fff"/>
          <path id="Trazado_1008" data-name="Trazado 1008" d="M680.162,299.952l-14.169.407-12.555.361v-11.1l12.824.885,13.9.959Z" transform="translate(-569.049 -263.635)" fill="#fff"/>
          <circle id="Elipse_233" data-name="Elipse 233" cx="2.734" cy="2.734" r="2.734" transform="matrix(0.16, -0.987, 0.987, 0.16, 86.546, 61.634)" fill="#fff"/>
          <circle id="Elipse_234" data-name="Elipse 234" cx="2.098" cy="2.098" r="2.098" transform="translate(119.564 57.675)" fill="#fff"/>
        </g>
      </g>
    </g>
  </g>
</svg>
