<svg xmlns="http://www.w3.org/2000/svg" width="135.836" height="133.814" viewBox="0 0 135.836 133.814">
  <g id="Logo_vértical" data-name="Logo vértical" transform="translate(0 0)">
    <g id="Grupo_504" data-name="Grupo 504" transform="translate(0 94.078)">
      <path id="Trazado_973" data-name="Trazado 973" d="M165.395,671.98h-9.3v13.19H152.5V654.731h14.585v2.875H156.093v11.5h9.3Z" transform="translate(-152.5 -654.014)" fill="#1a70b6"/>
      <path id="Trazado_974" data-name="Trazado 974" d="M245.477,716.832V694h3.086l.127,3.213a6.691,6.691,0,0,1,2.156-2.833,4.924,4.924,0,0,1,2.917-.93q.591,0,1.015.043a4.444,4.444,0,0,1,1.015.253l-.846,3.171c-.253-.056-.514-.106-.782-.148a5.879,5.879,0,0,0-.909-.063,3.073,3.073,0,0,0-1.5.359,4.109,4.109,0,0,0-1.184.994,7.826,7.826,0,0,0-.951,1.458,16.935,16.935,0,0,0-.761,1.712v15.6Z" transform="translate(-228.525 -685.676)" fill="#1a70b6"/>
      <path id="Trazado_975" data-name="Trazado 975" d="M321.661,712.605a9.836,9.836,0,0,1-3.087,3,9.02,9.02,0,0,1-4.946,1.268,9.779,9.779,0,0,1-3.763-.7,7.6,7.6,0,0,1-2.917-2.135,10.1,10.1,0,0,1-1.9-3.615,17.539,17.539,0,0,1-.677-5.179,19.424,19.424,0,0,1,.7-5.538,10.759,10.759,0,0,1,1.945-3.826,7.561,7.561,0,0,1,2.917-2.2,9.822,9.822,0,0,1,7.272,0,6.208,6.208,0,0,1,2.642,2.241,11.223,11.223,0,0,1,1.585,3.953,27.676,27.676,0,0,1,.529,5.834H307.836a15.2,15.2,0,0,0,.528,4.037,7.338,7.338,0,0,0,1.289,2.6,4.6,4.6,0,0,0,1.882,1.4,6.246,6.246,0,0,0,2.3.423,5.092,5.092,0,0,0,1.839-.317,6.223,6.223,0,0,0,1.458-.782,5.946,5.946,0,0,0,1.1-1.036,8.563,8.563,0,0,0,.761-1.078ZM313.5,695.61a4.65,4.65,0,0,0-3.8,1.775,10.409,10.409,0,0,0-1.776,5.623h10.527a17.4,17.4,0,0,0-.444-3.488,6.606,6.606,0,0,0-.993-2.283,3.711,3.711,0,0,0-1.5-1.247A4.953,4.953,0,0,0,313.5,695.61Z" transform="translate(-276.679 -685.297)" fill="#1a70b6"/>
      <path id="Trazado_976" data-name="Trazado 976" d="M432.959,712.605a9.841,9.841,0,0,1-3.086,3,9.023,9.023,0,0,1-4.947,1.268,9.781,9.781,0,0,1-3.762-.7,7.607,7.607,0,0,1-2.917-2.135,10.1,10.1,0,0,1-1.9-3.615,17.536,17.536,0,0,1-.677-5.179,19.4,19.4,0,0,1,.7-5.538,10.735,10.735,0,0,1,1.945-3.826,7.555,7.555,0,0,1,2.917-2.2,9.82,9.82,0,0,1,7.271,0,6.2,6.2,0,0,1,2.642,2.241,11.207,11.207,0,0,1,1.586,3.953,27.691,27.691,0,0,1,.528,5.834h-14.12a15.239,15.239,0,0,0,.528,4.037,7.335,7.335,0,0,0,1.29,2.6,4.6,4.6,0,0,0,1.881,1.4,6.249,6.249,0,0,0,2.3.423,5.088,5.088,0,0,0,1.839-.317,6.231,6.231,0,0,0,1.459-.782,5.929,5.929,0,0,0,1.1-1.036,8.574,8.574,0,0,0,.761-1.078ZM424.8,695.61a4.652,4.652,0,0,0-3.805,1.775,10.416,10.416,0,0,0-1.775,5.623h10.527a17.356,17.356,0,0,0-.444-3.488,6.6,6.6,0,0,0-.993-2.283,3.711,3.711,0,0,0-1.5-1.247A4.956,4.956,0,0,0,424.8,695.61Z" transform="translate(-367.685 -685.297)" fill="#1a70b6"/>
      <g id="Grupo_503" data-name="Grupo 503" transform="translate(0 0)">
        <path id="Trazado_977" data-name="Trazado 977" d="M540.42,650.8l-3.495,23.382-4.318-19.45h-5.751l-4.646,19.683L518.655,650.8h-5.14l5.313,31.872H524.6l4.965-20.314,4.813,20.314h5.486l5.313-31.872Z" transform="translate(-447.691 -650.801)" fill="#123655"/>
        <path id="Trazado_978" data-name="Trazado 978" d="M694.5,691.224a7.545,7.545,0,0,0-2.636-1.592,10.549,10.549,0,0,0-3.629-.573,9.535,9.535,0,0,0-5.386,1.473,9.084,9.084,0,0,0-3.3,3.941l-.307.69,4.47,1.715.25-.683a4.944,4.944,0,0,1,1.6-2.316,4.147,4.147,0,0,1,2.591-.764,3.245,3.245,0,0,1,2.787,1.043,4.8,4.8,0,0,1,.851,2.933v1.2c-4.36.151-7.495.936-9.567,2.4a7.52,7.52,0,0,0-3.37,6.462,7.2,7.2,0,0,0,.714,3.33,6.781,6.781,0,0,0,1.821,2.242,7.206,7.206,0,0,0,2.486,1.267,9.644,9.644,0,0,0,2.671.387,8.465,8.465,0,0,0,4.178-.937,8.908,8.908,0,0,0,1.475-1.035l.1,1.549h4.3V696.582a8.362,8.362,0,0,0-.511-2.935A6.42,6.42,0,0,0,694.5,691.224Zm-2.712,11.169v5.75a8.294,8.294,0,0,1-1.845,1.477,4.815,4.815,0,0,1-2.47.62,4.349,4.349,0,0,1-2.682-.811,2.918,2.918,0,0,1-1-2.531,3.478,3.478,0,0,1,1.918-3.244A14.006,14.006,0,0,1,691.784,702.392Z" transform="translate(-582.878 -682.084)" fill="#123655"/>
        <path id="Trazado_979" data-name="Trazado 979" d="M286.152,659.289l-8.374,7.684,2.935.917-4.337,15.96-5.6-18.5H265.7l7.862,24.262.24.964a2.385,2.385,0,0,1-.242,2.063,1.647,1.647,0,0,1-.591.61,1.4,1.4,0,0,1-.31.109H152.5v4.117H272.226a3.039,3.039,0,0,0,.437-.021,5.438,5.438,0,0,0,4.367-2.3,10.432,10.432,0,0,0,1.343-2.589c.359-.977.714-2.105,1.054-3.354l5.626-19.968,2.481.775Z" transform="translate(-152.5 -657.741)" fill="#123655"/>
      </g>
    </g>
    <g id="Grupo_509" data-name="Grupo 509" transform="translate(0.091)">
      <path id="Trazado_980" data-name="Trazado 980" d="M254.135,206.04l12.449-.564,21.322-.966s5.555-17.088-12.054-24.5h0s0-.01,0-.015c-.423-10.831-.869-22.159-.894-22.525h.008l-.009-.019v-.013h-.006c-.158-.338-3.749-7.677-16.388-10.423-.174-.038-.34-.08-.511-.119.171.039.337.081.511.119l.2-7.377-35.135-4.808L153,157.725v27.246l2.046.562a3.369,3.369,0,0,0-1.17,1.681,5.7,5.7,0,0,0-.257,2.438c.24,2.316,1.7,4.063,3.257,3.9a2.927,2.927,0,0,0,2.246-2.483c0,.234,0,.466.025.707.309,2.974,2.181,5.216,4.182,5.009,1.417-.147,2.518-1.485,2.93-3.309-.007,3.459,1.813,6.274,4.14,6.337,1.712.047,3.228-1.413,3.984-3.562a9.177,9.177,0,0,0,.506-2.789,9.294,9.294,0,0,0-.277-2.551l23.051,6.335a10.566,10.566,0,0,0-.233,1.941c-.11,4.019,1.994,7.338,4.7,7.411,2.1.057,3.945-1.868,4.714-4.616-.061,4.34,2.224,7.9,5.156,7.978,2.833.077,5.235-3.121,5.554-7.248l5.87,1.614.357-13.085-.358,13.144,2.031.983c.537-4.545,3.231-7.99,6.384-7.9,3.439.094,6.113,4.35,5.973,9.508a13.469,13.469,0,0,1-.395,2.9,13.469,13.469,0,0,0,.395-2.9c.141-5.157-2.533-9.414-5.973-9.508-3.152-.086-5.846,3.358-6.384,7.9-.049.414-.087.834-.1,1.264-.141,5.157,2.533,9.414,5.973,9.508,2.472.067,4.66-2.04,5.751-5.142h0s3.111.882,4.052,1h0l14.049-.644,1.345-.062-1.345.062c1.069,2.361,2.856,3.931,4.926,3.987,2.288.063,4.332-1.738,5.49-4.465l19.953-.915s2.1-.376,2.357-5.453l-21.322.966Z" transform="translate(-153 -134.825)" fill="#21a9e0"/>
      <g id="Grupo_508" data-name="Grupo 508" transform="translate(0.008 0.129)">
        <path id="Trazado_981" data-name="Trazado 981" d="M425.169,432.421l19.141,2.511.082-.023-19.222-2.5Z" transform="translate(-375.552 -378.283)" fill="none"/>
        <path id="Trazado_982" data-name="Trazado 982" d="M636.469,248.867l0,1.011h0Z" transform="translate(-548.326 -228.204)" fill="#f39b13"/>
        <path id="Trazado_983" data-name="Trazado 983" d="M718.384,557.112c2.288.063,4.332-1.738,5.49-4.465l-10.416.478C714.527,555.485,716.314,557.056,718.384,557.112Z" transform="translate(-611.277 -476.595)" fill="#123655"/>
        <path id="Trazado_984" data-name="Trazado 984" d="M826.7,383.264c0-.005,0-.01,0-.015l-.029,0Z" transform="translate(-703.845 -338.083)" fill="#e88c15"/>
        <path id="Trazado_985" data-name="Trazado 985" d="M821.891,259.532h-.006l.007.014Z" transform="translate(-699.935 -236.923)" fill="#e88c15"/>
        <path id="Trazado_986" data-name="Trazado 986" d="M531.932,446.278Z" transform="translate(-462.849 -389.62)" fill="#f39b13"/>
        <path id="Trazado_987" data-name="Trazado 987" d="M450.41,488.56c0-.007,0-.015,0-.022l-.006.021Z" transform="translate(-396.186 -424.175)" fill="#d45415"/>
        <path id="Trazado_988" data-name="Trazado 988" d="M531.932,446.278Z" transform="translate(-462.849 -389.62)" fill="#d45415"/>
        <path id="Trazado_989" data-name="Trazado 989" d="M531.932,445.827h0l0-.1h0Z" transform="translate(-462.849 -389.17)" fill="#d45415"/>
        <path id="Trazado_990" data-name="Trazado 990" d="M821.93,259.626l-.009-.019s0,.015,0,.019Z" transform="translate(-699.964 -236.985)" fill="#e88c15"/>
        <path id="Trazado_991" data-name="Trazado 991" d="M826.828,383.249Z" transform="translate(-703.977 -338.083)" fill="#f39b13"/>
        <g id="Grupo_505" data-name="Grupo 505" transform="translate(88.144 44.084)">
          <path id="Trazado_992" data-name="Trazado 992" d="M671.182,378.412l-.03-.012.029,0c-1.171-1.093-9.806-1.189-18.161-1.011-8.386.179-16.491.634-16.491.634v.006l0,1.89-.059,25.118.183-.008,12.808-.58,12.448-.564,21.322-.966S688.791,385.827,671.182,378.412Z" transform="translate(-636.474 -377.315)" fill="#1898d4"/>
        </g>
        <path id="Trazado_993" data-name="Trazado 993" d="M636.466,247.487v0Z" transform="translate(-548.324 -227.075)" fill="#e88c15"/>
        <path id="Trazado_994" data-name="Trazado 994" d="M597.886,197.71s0-.017,0-.019l-.007-.014c-.158-.338-3.748-7.677-16.388-10.423-.232-.05-.445-.111-.683-.158l-32.879-3.211s12.366,6.322,16.143,11.6v.252l0,1.012.053,23.12v-.006s8.105-.455,16.491-.634c8.356-.178,16.99-.082,18.161,1.011C598.356,209.4,597.911,198.076,597.886,197.71Z" transform="translate(-475.929 -175.069)" fill="#21a9e0"/>
        <rect id="Rectángulo_111" data-name="Rectángulo 111" height="0.002" transform="translate(88.143 20.41)" fill="#e88c15"/>
        <path id="Trazado_995" data-name="Trazado 995" d="M582.445,245.719,570,246.283l-12.808.58-.182.008.06-24.109-.059-25.966,0-1.316-.249-.332h0v0l-.009-.01h0l-.021-.028v0c-4.069-5.2-15.863-11.227-15.863-11.227l.02,2.224-1.238,45.377-.358,13.144,2.031.983c.537-4.545,3.231-7.989,6.384-7.9,3.439.094,6.113,4.35,5.973,9.508a13.247,13.247,0,0,1-.731,4.025s3.112.881,4.052,1h0l14.049-.644,10.415-.478,19.952-.915s2.1-.376,2.357-5.453Z" transform="translate(-468.861 -175.069)" fill="#1a70b6"/>
        <g id="Grupo_506" data-name="Grupo 506" transform="translate(101.984 53.236)">
          <path id="Trazado_996" data-name="Trazado 996" d="M735.08,427.512l-1.836.111-20.862,1.263c3.376,4.934,1.091,11.468.579,12.769l9.147-.379,3.7-.153,9.871-.409S739.045,433.029,735.08,427.512Z" transform="translate(-712.382 -427.512)" fill="#1a70b6"/>
        </g>
        <path id="Trazado_997" data-name="Trazado 997" d="M636.7,382.586" transform="translate(-548.517 -337.541)" fill="#1a70b6"/>
        <g id="Grupo_507" data-name="Grupo 507" transform="translate(0 0)">
          <path id="Trazado_998" data-name="Trazado 998" d="M223.12,432.2c.023.224.036.445.04.664a7.929,7.929,0,0,1,1.046-2.738l-1.841-.506a7.005,7.005,0,0,1,.369.878A7.726,7.726,0,0,1,223.12,432.2Z" transform="translate(-209.725 -375.996)" fill="none"/>
          <path id="Trazado_999" data-name="Trazado 999" d="M183.107,421.2c.012.118.007.231.012.347a6.1,6.1,0,0,1,.385-1.193,4.693,4.693,0,0,1,.756-1.21l-2.109-.58a5.215,5.215,0,0,1,.776,1.689A6.133,6.133,0,0,1,183.107,421.2Z" transform="translate(-176.844 -366.959)" fill="none"/>
          <path id="Trazado_1000" data-name="Trazado 1000" d="M222.129,192.038l1.541-56.5-70.628,22.9V183.88l69.083,8.313Z" transform="translate(-153.042 -135.535)" fill="#123655"/>
          <path id="Trazado_1001" data-name="Trazado 1001" d="M169,418.764c.027-.225.062-.446.1-.663,0-.219-.017-.44-.04-.664a7.723,7.723,0,0,0-.386-1.7,7.015,7.015,0,0,0-.369-.878c-.788-1.576-2.072-2.57-3.428-2.429a2.777,2.777,0,0,0-1.8.993,4.694,4.694,0,0,0-.756,1.21,6.1,6.1,0,0,0-.385,1.193c-.006-.116,0-.229-.012-.347a6.133,6.133,0,0,0-.179-.947,5.215,5.215,0,0,0-.776-1.689,2.591,2.591,0,0,0-2.3-1.265,2.022,2.022,0,0,0-.959.369,3.367,3.367,0,0,0-1.17,1.68,5.7,5.7,0,0,0-.257,2.438c.241,2.316,1.7,4.063,3.258,3.9a2.927,2.927,0,0,0,2.247-2.483c0,.234,0,.466.025.707.309,2.974,2.181,5.216,4.182,5.009,1.417-.147,2.518-1.485,2.931-3.309,0-.083,0-.166,0-.249C168.938,419.341,168.964,419.051,169,418.764Z" transform="translate(-155.667 -361.238)" fill="#123655"/>
          <path id="Trazado_1002" data-name="Trazado 1002" d="M450.41,488.56c0-.007,0-.015,0-.022l-.006.021Z" transform="translate(-396.186 -424.175)" fill="#123655"/>
          <path id="Trazado_1003" data-name="Trazado 1003" d="M416.876,459.423c.12-4.412-2.189-8.055-5.158-8.136-2.344-.064-4.393,2.115-5.213,5.206,0,.007,0,.015,0,.022l-.006,0,.006-.021c.011-3.895-2.05-7.068-4.691-7.144h-.006c-2-.055-3.773,1.689-4.6,4.231l-.007.019c-.1.307-.184.626-.255.954a10.558,10.558,0,0,0-.233,1.941c-.11,4.019,1.994,7.338,4.7,7.411,2.1.057,3.945-1.868,4.714-4.616-.061,4.34,2.224,7.9,5.156,7.978,2.833.077,5.235-3.121,5.554-7.248.006-.078.013-.156.018-.235C416.861,459.663,416.872,459.545,416.876,459.423Z" transform="translate(-352.282 -392.13)" fill="#123655"/>
          <path id="Trazado_1004" data-name="Trazado 1004" d="M556.342,479.081c-3.152-.086-5.846,3.358-6.384,7.9-.049.414-.087.833-.1,1.264-.141,5.157,2.533,9.414,5.973,9.508,2.472.067,4.66-2.04,5.751-5.142a13.249,13.249,0,0,0,.731-4.026C562.455,483.431,559.781,479.175,556.342,479.081Z" transform="translate(-477.504 -416.441)" fill="#123655"/>
          <path id="Trazado_1005" data-name="Trazado 1005" d="M230.264,421.008a3.886,3.886,0,0,0-3.273,2.074,7.93,7.93,0,0,0-1.046,2.738c-.042.217-.077.438-.1.663-.034.287-.06.577-.068.876,0,.084,0,.167,0,.249-.007,3.459,1.813,6.274,4.14,6.337,1.712.047,3.228-1.413,3.984-3.562a9.177,9.177,0,0,0,.506-2.789,9.3,9.3,0,0,0-.277-2.551C233.529,422.716,232.045,421.057,230.264,421.008Z" transform="translate(-212.51 -368.957)" fill="#123655"/>
        </g>
        <path id="Trazado_1006" data-name="Trazado 1006" d="M223.67,135.535l-1.541,56.5,0,.154-69.083-8.313v1.8l2.046.562a2.023,2.023,0,0,1,.959-.369,2.591,2.591,0,0,1,2.3,1.265l2.109.58a2.777,2.777,0,0,1,1.8-.993c1.355-.141,2.639.853,3.428,2.429l1.841.506a3.886,3.886,0,0,1,3.273-2.074c1.781.049,3.265,1.708,3.861,4.035l23.051,6.335c.071-.328.156-.647.255-.954l.007-.019c.828-2.541,2.6-4.285,4.6-4.231h.006c2.641.076,4.7,3.249,4.691,7.144.82-3.09,2.869-5.269,5.213-5.206,2.969.081,5.278,3.724,5.158,8.136,0,.122-.015.24-.022.36,0,.079-.012.157-.018.235l5.871,1.613.357-13.085,1.238-45.377-.02-2.224,32.879,3.211c.239.047.451.108.683.158l.2-7.377Z" transform="translate(-153.042 -135.535)" fill="#1898d4"/>
        <path id="Trazado_1007" data-name="Trazado 1007" d="M571.308,280.138l-9.672-2.534V264.695l9.672,2.137Z" transform="translate(-487.137 -241.145)" fill="#fff"/>
        <path id="Trazado_1008" data-name="Trazado 1008" d="M682.331,300.79l-15.318.44-13.574.39v-12l13.865.957,15.028,1.037Z" transform="translate(-562.201 -261.527)" fill="#fff"/>
        <circle id="Elipse_233" data-name="Elipse 233" cx="2.956" cy="2.956" r="2.956" transform="matrix(0.16, -0.987, 0.987, 0.16, 93.569, 66.635)" fill="#fff"/>
        <circle id="Elipse_234" data-name="Elipse 234" cx="2.269" cy="2.269" r="2.269" transform="translate(129.266 62.355)" fill="#fff"/>
      </g>
    </g>
  </g>
</svg>
