<svg width="24" height="24" xmlns="http://www.w3.org/2000/svg"><path data-name="Rectángulo 2219" fill="none" d="M0 0h24v24H0z"/><path data-name="Trazado 12471" d="M13.114 20.636a1.564 1.564 0 11-1.567-1.564 1.565 1.565 0 011.567 1.564z" fill="#86a6eb"/><path data-name="Trazado 12472" d="M18.886 16.868l-1.389-1.389V9.306a4.882 4.882 0 00-4.883-4.883h-1.628a4.882 4.882 0 00-4.883 4.883v6.173l-1.389 1.389a.814.814 0 00.575 1.389H18.31a.814.814 0 00.575-1.389zM7.254 16.63l.238-.238a.813.813 0 00.238-.575V9.306a3.255 3.255 0 013.255-3.255h1.628a3.255 3.255 0 013.255 3.255v6.51a.816.816 0 00.238.575l.238.238z" fill="#86a6eb" fill-rule="evenodd"/></svg>