<svg width="24" height="24" xmlns="http://www.w3.org/2000/svg"><path data-name="Trazado 12468" d="M22.67 11.788L12.504.951a.724.724 0 00-.527-.22.722.722 0 00-.526.22L1.287 11.788a.723.723 0 00.526 1.218h1.943v9.5a.723.723 0 00.722.723h15a.723.723 0 00.722-.723v-9.5h1.943a.723.723 0 00.526-1.218zM9.589 17.122a2.389 2.389 0 014.778 0v4.659H9.589zm2.388-3.834a3.838 3.838 0 00-3.833 3.834v4.659H5.201v-9.5a.724.724 0 00-.723-.723h-1l8.5-9.059 8.5 9.059h-1a.724.724 0 00-.723.723v9.5h-2.943v-4.659a3.839 3.839 0 00-3.835-3.834z" fill="#874f87"/><path data-name="Rectángulo 2216" fill="none" d="M0 0h24v24H0z"/></svg>