<svg width="24" height="24" xmlns="http://www.w3.org/2000/svg"><path data-name="Trazado 12456" d="M19.715 9.124h-2.572V6.83a2.447 2.447 0 00-2.572-2.3h-12A2.447 2.447 0 000 6.83v10.73a.815.815 0 00.857.766h2.728a2.664 2.664 0 003.3 1.377 2.45 2.45 0 001.54-1.377h8.88a2.664 2.664 0 003.294 1.377 2.45 2.45 0 001.54-1.377h1.011a.815.815 0 00.857-.766v-4.6a4.078 4.078 0 00-4.292-3.836zM6 18.324a.771.771 0 110-1.533.771.771 0 110 1.533zm9.429-1.533H8.418a2.666 2.666 0 00-3.3-1.377 2.455 2.455 0 00-1.533 1.374H1.714v-2.3h13.714zm0-3.832H1.714V6.83a.815.815 0 01.857-.766h12a.815.815 0 01.857.766zm4.286 5.364a.771.771 0 11.857-.766.815.815 0 01-.857.764zm2.57-1.535h-.154a2.665 2.665 0 00-3.294-1.377 2.45 2.45 0 00-1.54 1.377h-.154v-6.131H18v3.066a.815.815 0 00.857.766h3.428zm-2.57-3.831v-2.3a2.447 2.447 0 012.571 2.3z" fill="#6a37c7"/><path data-name="Trazado 12457" d="M0 0v24h24V0z" fill="none"/></svg>