<svg width="24" height="24" xmlns="http://www.w3.org/2000/svg"><g data-name="Grupo 1645"><path data-name="Rectángulo 2227" fill="none" d="M0 0h24v24H0z"/><g data-name="Grupo 1647" fill="#c573d8"><path data-name="Trazado 12480" d="M21.572 19.539a.691.691 0 01-.314-.391 1.8 1.8 0 01.336-1.288 7.366 7.366 0 00-2.223-10.166 7.4 7.4 0 00-3.542-1.151 7.653 7.653 0 00-.81.007l-.013-.027a4.427 4.427 0 00-.209-.382 7.306 7.306 0 00-4.627-3.217 7.287 7.287 0 00-5.541.994A7.306 7.306 0 001.41 8.54a7.3 7.3 0 00.984 5.526 1.827 1.827 0 01.347 1.306.679.679 0 01-.292.379.907.907 0 00-.506 1.01.9.9 0 00.879.71h5.613c.2 0 .4-.01.6-.028a7.672 7.672 0 006.53 3.805h5.613a.894.894 0 00.87-.7.912.912 0 00-.476-1.009zM3.92 13.113a5.526 5.526 0 01-.752-4.187 5.518 5.518 0 012.43-3.492 5.524 5.524 0 014.187-.752 5.516 5.516 0 013.492 2.429 5.6 5.6 0 01.866 3.4 5.814 5.814 0 01-4.7 5.057l-.038.007a5.411 5.411 0 01-.969.092H4.521a3.6 3.6 0 00-.601-2.554zm8.5 3.167a.768.768 0 00.174.021h5.36a.9.9 0 100-1.8h-3.557a7.568 7.568 0 00.784-1.221h2.791a.9.9 0 000-1.8h-2.154a6.033 6.033 0 00.12-.836 7.253 7.253 0 00-.216-2.3 5.559 5.559 0 014.34 8.574 3.559 3.559 0 00-.584 2.532h-3.9a5.929 5.929 0 01-4.679-2.42 7.789 7.789 0 001.518-.75z"/><path data-name="Trazado 12481" d="M8.009 12.552v.005a.959.959 0 00-.09.112.577.577 0 00-.068.136.467.467 0 00-.045.135.952.952 0 000 .151.632.632 0 00.06.286.679.679 0 00.406.406.712.712 0 00.572 0 .682.682 0 00.406-.406.756.756 0 00.045-.286.752.752 0 00-.222-.531.753.753 0 00-1.064-.008z"/><path data-name="Trazado 12482" d="M8.539 6.321A2.258 2.258 0 006.583 7.45a.753.753 0 00.232 1.038.752.752 0 001.038-.228l.032-.055a.751.751 0 01.654-.376.752.752 0 01.752.752.752.752 0 01-.752.752.752.752 0 00-.752.752v.752a.752.752 0 00.752.752.752.752 0 00.752-.752v-.135a2.257 2.257 0 001.352-2.891 2.259 2.259 0 00-2.104-1.49z"/></g></g></svg>