<svg width="18.336" height="18.336" xmlns="http://www.w3.org/2000/svg"><g data-name="Grupo 1607"><path data-name="Trazado 1021" d="M17.353 8.463c-.154-.188-3.75-4.586-8.352-4.586-4.603 0-8.198 4.398-8.353 4.586a.853.853 0 000 1.074c.154.188 3.749 4.585 8.352 4.585s8.197-4.397 8.352-4.585a.853.853 0 000-1.074zM9 12.417c-2.922 0-5.494-2.331-6.533-3.416C3.5 7.917 6.079 5.584 9 5.584c2.921 0 5.494 2.333 6.533 3.417-1.032 1.085-3.613 3.416-6.533 3.416zm0-5.972a2.562 2.562 0 102.562 2.562A2.562 2.562 0 009 6.44zm0 3.416a.854.854 0 11.854-.854.854.854 0 01-.854.848z" fill="#bc4b87"/></g><path data-name="Trazado 1022" d="M.001 0v18.336h18.335V0z" fill="none"/></svg>