<svg width="24" height="24" xmlns="http://www.w3.org/2000/svg"><path data-name="Trazado 12470" d="M11.548 3.197a8.776 8.776 0 00-6.04 2.431V4.077a.878.878 0 00-1.755 0v3.95a.878.878 0 00.877.878h3.95a.878.878 0 100-1.755H6.474a7.023 7.023 0 11-1.949 4.828.878.878 0 00-1.756 0 8.779 8.779 0 108.779-8.781zm0 5.267a.878.878 0 00-.878.877v2.634a.878.878 0 00.878.878h1.755a.878.878 0 100-1.755h-.877V9.345a.878.878 0 00-.878-.878z" fill="#45e6bc"/><path data-name="Rectángulo 2218" fill="none" d="M0 0h24v24H0z"/></svg>