<?xml version="1.0" encoding="UTF-8" standalone="no"?>
<svg aria-hidden="true" data-prefix="far" data-icon="envelope"
    class="prefix__svg-inline--fa prefix__fa-envelope prefix__fa-w-16" width="24" height="24" version="1.1" id="svg4"
    xmlns="http://www.w3.org/2000/svg" xmlns:svg="http://www.w3.org/2000/svg">
    <defs id="defs8" />
    <path
        d="M21.75 3H2.25A2.25 2.25 0 000 5.25v13.5A2.25 2.25 0 002.25 21h19.5A2.25 2.25 0 0024 18.75V5.25A2.25 2.25 0 0021.75 3zm0 2.25v1.913c-1.051.856-2.727 2.187-6.309 4.991-.79.621-2.353 2.113-3.441 2.096-1.088.017-2.652-1.475-3.441-2.096C4.977 9.35 3.3 8.02 2.25 7.163V5.25zm-19.5 13.5v-8.7a799.27 799.27 0 004.919 3.874C8.194 14.73 9.988 16.51 12 16.5c2.002.01 3.774-1.744 4.83-2.576a798.668 798.668 0 004.92-3.874v8.7z"
        id="path2" style="stroke:none;fill:#360000;fill-opacity:1" />
</svg>