<svg width="16" height="16" xmlns="http://www.w3.org/2000/svg"><g data-name="Grupo 1633"><path data-name="Rectángulo 2226" fill="none" d="M0 0h16v16H0z"/></g><g data-name="Grupo 1634"><path data-name="Trazado 12478" d="M7.999 3.613a2.819 2.819 0 00-1.988.8 2.818 2.818 0 000 3.974 2.814 2.814 0 001.98.824h.015a2.816 2.816 0 001.98-.823 2.819 2.819 0 000-3.976 2.82 2.82 0 00-1.987-.799zm1.365 4.149a1.98 1.98 0 01-2.729 0 1.936 1.936 0 010-2.731 1.931 1.931 0 011.36-.564h.009a1.929 1.929 0 011.36.565 1.934 1.934 0 010 2.73z" fill="#5881e1"/><path data-name="Trazado 12479" d="M12.266 2.569A6.034 6.034 0 008.014.799h-.015a5.992 5.992 0 00-4.266 1.77 6.055 6.055 0 000 8.535l4.16 4.16.106.1 4.267-4.266a6.054 6.054 0 000-8.529zm-.92 7.615l-3.347 3.347-3.347-3.346a4.754 4.754 0 010-6.7 4.739 4.739 0 013.336-1.386h.022a4.735 4.735 0 013.336 1.386 4.751 4.751 0 010 6.698z" fill="#589e8d"/></g></svg>