<svg width="18" height="18" xmlns="http://www.w3.org/2000/svg"><g transform="translate(0 -.043)"><circle data-name="Elipse 235" cx="1.241" cy="1.241" r="1.241" transform="translate(7.759 9.351)" fill="#cd87e5"/><g data-name="Grupo 513"><path data-name="Trazado 1011" d="M0 .043v18h18v-18z" fill="none"/><path data-name="Trazado 1012" d="M4.655 15.248h8.69a1.862 1.862 0 001.862-1.862V7.8a1.862 1.862 0 00-1.862-1.862h-1.242v-.621a3.103 3.103 0 00-6.207 0v.621H4.655A1.862 1.862 0 002.793 7.8v5.586a1.862 1.862 0 001.862 1.862zm2.483-9.931a1.862 1.862 0 113.724 0v.621H7.138zM4.038 7.8a.621.621 0 01.621-.621h8.69a.621.621 0 01.621.621v5.586a.621.621 0 01-.621.621H4.655a.621.621 0 01-.621-.621z" fill="#cd87e5"/></g></g></svg>