<?xml version="1.0" encoding="UTF-8" standalone="no"?>
<svg
   width="50"
   height="50"
   viewBox="0 0 50 50"
   version="1.1"
   id="svg7"
   xmlns="http://www.w3.org/2000/svg"
   xmlns:svg="http://www.w3.org/2000/svg">
  <defs
     id="defs11" />
  <g
     id="Premium"
     transform="translate(-426.49 -58.17)">
    <rect
       id="Rectángulo_2322"
       data-name="Rectángulo 2322"
       width="50"
       height="50"
       transform="translate(426.49 58.17)"
       fill="none" />
    <path
       id="Trazado_12557"
       data-name="Trazado 12557"
       d="M458.778,93.419H444.2a1.194,1.194,0,0,0,0,2.387h14.577a1.194,1.194,0,0,0,0-2.387Z"
       fill="#ffa726"
       style="stroke:none;fill:#70a726;fill-opacity:1" />
    <path
       id="Trazado_12558"
       data-name="Trazado 12558"
       d="M465.087,76.907a3.122,3.122,0,0,0-4.036,3.791l-5.163,2.74-2.682-5.365a3.432,3.432,0,1,0-4.782-1.6,3.448,3.448,0,0,0,1.39,1.552l-2.709,5.414-5.169-2.744a3.119,3.119,0,1,0-2.207,2.179l3.046,7.513a2.464,2.464,0,0,0,2.3,1.55h12.85a2.463,2.463,0,0,0,2.3-1.55l3.045-7.511a3.124,3.124,0,0,0,3.74-1.99A3.128,3.128,0,0,0,465.087,76.907Zm-.3,2.948a.734.734,0,1,1-.734-.734A.735.735,0,0,1,464.791,79.855Zm-14.282-4.789a1.046,1.046,0,1,1,1.046,1.046A1.049,1.049,0,0,1,450.509,75.066Zm-1.52,9.943,2.508-5.015L454,85.009a1.852,1.852,0,0,0,2.507.8l3.805-2.022-2.311,5.7a.1.1,0,0,1-.088.061h-12.84a.1.1,0,0,1-.09-.061l-2.31-5.7,3.806,2.022A1.849,1.849,0,0,0,448.989,85.009Zm-9.326-5.154a.735.735,0,1,1-.735-.734A.737.737,0,0,1,439.663,79.855Z"
       fill="#ffa726"
       style="fill:#ff5426;fill-opacity:1;stroke:none" />
    <path
       id="Trazado_12559"
       data-name="Trazado 12559"
       d="M472.52,79.119a8.24,8.24,0,0,1-1.479-2.275,8.535,8.535,0,0,1-.163-2.83c.07-1.542.142-3.139-.748-4.362s-2.45-1.66-3.947-2.071a8.5,8.5,0,0,1-2.614-1.013,8.461,8.461,0,0,1-1.741-2.146c-.857-1.311-1.742-2.666-3.218-3.142-1.414-.461-2.894.094-4.338.639a5.695,5.695,0,0,1-5.579-.006c-1.432-.537-2.909-1.084-4.325-.635-1.476.478-2.361,1.833-3.218,3.144a8.409,8.409,0,0,1-1.741,2.146,8.5,8.5,0,0,1-2.613,1.013c-1.5.411-3.048.834-3.948,2.071s-.817,2.82-.748,4.366a8.482,8.482,0,0,1-.163,2.826,8.24,8.24,0,0,1-1.479,2.275c-.942,1.172-2.009,2.5-2.009,4.079s1.02,2.846,2.014,4.085a8.227,8.227,0,0,1,1.474,2.267,8.507,8.507,0,0,1,.163,2.83c-.069,1.542-.142,3.139.748,4.364S435.3,98.4,436.8,98.815a8.517,8.517,0,0,1,2.612,1.011,8.429,8.429,0,0,1,1.741,2.149c.857,1.308,1.744,2.661,3.218,3.143a3.612,3.612,0,0,0,1.114.169,9.532,9.532,0,0,0,3.213-.806,5.718,5.718,0,0,1,5.6,0c1.436.537,3.036,1.05,4.32.633,1.473-.478,2.358-1.829,3.22-3.141a8.377,8.377,0,0,1,1.74-2.149,8.492,8.492,0,0,1,2.619-1.013c1.5-.411,3.043-.838,3.941-2.069s.818-2.822.748-4.372a8.5,8.5,0,0,1,.163-2.822,8.32,8.32,0,0,1,1.484-2.281c.986-1.227,2.005-2.494,2.005-4.071S473.462,80.291,472.52,79.119Zm-5.042,13.413a6.79,6.79,0,0,1-.1,2.206,6.741,6.741,0,0,1-2.11.8,8.556,8.556,0,0,0-6.286,4.574c-.38.58-1.087,1.658-1.421,1.768a6.521,6.521,0,0,1-2.1-.592,11.365,11.365,0,0,0-3.974-.94,11.481,11.481,0,0,0-4.016.956,7.512,7.512,0,0,1-2.052.578c-.336-.11-1.017-1.15-1.43-1.778a10.959,10.959,0,0,0-2.579-3.028,11.187,11.187,0,0,0-3.723-1.546,6.632,6.632,0,0,1-2.088-.789,6.775,6.775,0,0,1-.1-2.208,11.23,11.23,0,0,0-.324-4.03,10.851,10.851,0,0,0-2.065-3.361,6.209,6.209,0,0,1-1.257-1.941,6.225,6.225,0,0,1,1.257-1.943,10.83,10.83,0,0,0,2.065-3.359,11.233,11.233,0,0,0,.324-4.03,6.817,6.817,0,0,1,.1-2.21,6.62,6.62,0,0,1,2.1-.791,11.157,11.157,0,0,0,3.716-1.542A10.988,10.988,0,0,0,444,66.285c.379-.58,1.085-1.658,1.42-1.766a.291.291,0,0,1,.089-.01,9.3,9.3,0,0,1,1.99.594,8.892,8.892,0,0,0,7.982,0,7.62,7.62,0,0,1,2.08-.586c.334.11,1.04,1.19,1.422,1.772a10.977,10.977,0,0,0,2.584,3.034,11.145,11.145,0,0,0,3.717,1.542,6.718,6.718,0,0,1,2.093.789,6.8,6.8,0,0,1,.1,2.212,11.233,11.233,0,0,0,.324,4.03,10.91,10.91,0,0,0,2.065,3.359,6.209,6.209,0,0,1,1.258,1.943,6.239,6.239,0,0,1-1.26,1.945A10.875,10.875,0,0,0,467.8,88.5,11.237,11.237,0,0,0,467.478,92.532Z"
       fill="#ffa726"
       style="stroke:none;fill:#ff5d26;fill-opacity:1" />
  </g>
</svg>
