<svg width="24" height="24" xmlns="http://www.w3.org/2000/svg"><path data-name="Rectángulo 2213" fill="none" d="M0 0h24v24H0z"/><g data-name="Grupo 1625" fill="#668900"><path data-name="Trazado 12463" d="M16.333 14.852a6.75 6.75 0 116.75-6.75 6.758 6.758 0 01-6.75 6.75zm0-12a5.25 5.25 0 105.25 5.25 5.256 5.256 0 00-5.25-5.25z"/><path data-name="Trazado 12464" d="M10.453 14.735a.75.75 0 01-.527-1.28l1.5-1.5a.75.75 0 011.057 1.06l-1.5 1.5a.748.748 0 01-.53.22z"/><path data-name="Trazado 12465" d="M4.664 22.028a2.251 2.251 0 01-1.592-3.842l4.243-4.246a2.25 2.25 0 013.181 3.181l-4.242 4.242a2.232 2.232 0 01-1.59.665zm4.242-7.246a.749.749 0 00-.531.219l-4.242 4.242a.746.746 0 00-.006 1.055l.006.006a.742.742 0 00.53.219.749.749 0 00.531-.219l4.242-4.242a.75.75 0 00-.531-1.279z"/></g></svg>