<svg xmlns="http://www.w3.org/2000/svg" width="101.49" height="101.518"><g data-name="Grupo 1613" transform="translate(209.233 -44.521)"><path data-name="Trazado 12433" d="M-118.015 54.817a34.9 34.9 0 00-24.835-10.3 34.9 34.9 0 00-24.836 10.3 35.072 35.072 0 00-4.1 44.7l-5.754 5.753a5.589 5.589 0 00-6.254 1.016l-23.838 23.838a5.445 5.445 0 00-1.6 3.878 5.445 5.445 0 001.6 3.879l6.549 6.55a5.452 5.452 0 003.877 1.607 5.455 5.455 0 003.879-1.607l23.839-23.838a5.44 5.44 0 001.031-6.273l5.729-5.728a35.024 35.024 0 0044.709-4.1 34.882 34.882 0 0010.272-24.836 34.884 34.884 0 00-10.268-24.839zm-77.826 87.1a1.978 1.978 0 01-2.721 0l-6.549-6.55a1.927 1.927 0 010-2.721l2.219-2.22 9.271 9.27zm4.738-4.737l-9.271-9.272 14.364-14.363 9.27 9.271zm19.1-19.1l-2.22 2.22-9.271-9.271 2.22-2.219a1.949 1.949 0 012.383-.213l.02.035c.119.215.119.215 1.014 1.1.859.849 2.461 2.429 5.742 5.741a1.768 1.768 0 01.115 2.602zm1.258-6.5l-4.031-4.031 5.167-5.168a33.468 33.468 0 001.92 2.111 34.793 34.793 0 002.108 1.926zm50.212-9.605a31.356 31.356 0 01-22.318 9.245 31.131 31.131 0 01-19.954-7.1l-4.448-4.447a31.441 31.441 0 012.082-42.333 31.471 31.471 0 0122.32-9.24 31.468 31.468 0 0122.319 9.23 31.6 31.6 0 010 44.642z" fill="#1a70b6"/><path data-name="Trazado 12434" d="M-169.608 102.378l-5.167 5.168 4.031 4.031 5.164-5.162a35.722 35.722 0 01-2.108-1.926 33.468 33.468 0 01-1.92-2.111z" fill="#fff"/><path data-name="Trazado 12435" d="M-177.856 109.725c-.9-.883-.9-.883-1.014-1.1l-.02-.035a1.949 1.949 0 00-2.383.213l-2.22 2.219 9.271 9.271 2.22-2.22a1.768 1.768 0 00-.112-2.609c-3.286-3.31-4.886-4.89-5.742-5.739z" fill="#fff"/><path data-name="Trazado 12436" d="M-205.111 132.643a1.927 1.927 0 000 2.721l6.549 6.55a1.978 1.978 0 002.721 0l2.22-2.221-9.271-9.27z" fill="#fff"/><path data-name="Rectángulo 2201" fill="#fff" d="M-200.374 127.905l14.364-14.363 9.27 9.271-14.363 14.363z"/><circle data-name="Elipse 237" cx="1.981" cy="1.981" r="1.981" transform="translate(-156.048 86.373)" fill="#fff"/><path data-name="Trazado 12438" d="M-143.719 85.265a3.808 3.808 0 01.352-.168c.011 0 .016 0 .026-.011h-9.419c.01 0 .015.006.026.011a3.808 3.808 0 01.352.168c.02.01.036.026.056.036.092.056.184.112.271.173l.1.077c.071.056.138.112.2.169l.1.091c.066.067.133.133.194.205a.989.989 0 01.071.076 2.648 2.648 0 01.235.306.2.2 0 01.036.057 2.4 2.4 0 01.163.275c.021.041.036.077.056.118a2.142 2.142 0 01.108.25c.015.046.03.087.046.128.03.091.056.183.081.28.005.026.016.051.021.077h5.181c.005-.026.016-.051.021-.077.025-.092.051-.189.081-.28l.046-.128a2.139 2.139 0 01.108-.25c.02-.036.035-.077.056-.113.051-.091.107-.183.163-.275.01-.016.026-.036.036-.056.076-.108.153-.21.235-.307.025-.025.046-.051.071-.076a2.454 2.454 0 01.294-.287c.067-.062.133-.113.2-.169a.664.664 0 00.1-.087 3.1 3.1 0 01.271-.173c.026-.014.042-.03.062-.04z" fill="#fff"/><circle data-name="Elipse 238" cx="1.981" cy="1.981" r="1.981" transform="translate(-144.015 86.373)" fill="#fff"/><path data-name="Trazado 12439" d="M-140.7 85.1a3.827 3.827 0 01.353.168c.02.011.035.026.056.036.092.056.184.112.27.174.036.025.067.051.1.076.072.056.138.112.205.169.03.03.066.061.1.092.066.066.132.132.194.2a.988.988 0 01.071.076 2.572 2.572 0 01.235.307.225.225 0 01.036.056 2.489 2.489 0 01.163.275c.021.041.036.077.056.118a2.043 2.043 0 01.107.25l.046.128c.031.092.057.183.082.28 0 .026.015.051.02.077h1.731v-2.5h-3.849c.012.01.017.018.024.018z" fill="#fff"/><path data-name="Trazado 12457" d="M-160.016 71.132h20.38v9.643h-20.38z" fill="#fff"/><circle data-name="Elipse 239" cx="1.981" cy="1.981" r="1.981" transform="translate(-131.977 86.373)" fill="#fff"/><path data-name="Trazado 12440" d="M-130.568 73.529h-4.794v14.059h1.92l.015-.041a3.236 3.236 0 01.158-.5c0-.01.011-.026.016-.036a3.151 3.151 0 01.24-.47l.045-.076a3.491 3.491 0 01.307-.409.356.356 0 01.056-.066 4.04 4.04 0 01.378-.362.11.11 0 01.025-.021 3.533 3.533 0 01.424-.291.344.344 0 01.056-.035 3.461 3.461 0 01.47-.215l.092-.031a3.285 3.285 0 01.505-.132c.031 0 .061-.01.087-.016a3.442 3.442 0 01.561-.051 3.454 3.454 0 01.562.051l.087.016a3.285 3.285 0 01.505.132l.092.031a3.518 3.518 0 01.47.215.306.306 0 00.056.035 3.534 3.534 0 01.424.291.11.11 0 00.025.021 3.6 3.6 0 01.378.362.326.326 0 00.056.066 3.484 3.484 0 01.306.409l.046.076a3.411 3.411 0 01.24.47c.005.01.01.026.016.036a3.418 3.418 0 01.158.5c0 .015.01.026.015.041h1.9v-8.163zm3.313 9.168h-6.116a.765.765 0 01-.766-.765v-6.065a.765.765 0 01.766-.766.765.765 0 01.766.766v5.3h5.35a.765.765 0 01.766.766.765.765 0 01-.766.767z" fill="#fff"/><path data-name="Trazado 12441" d="M-155.757 85.275a3.825 3.825 0 01.353-.168c.01 0 .015-.005.025-.01h-4.783v2.486h2.67c.005-.026.015-.051.02-.077.026-.092.051-.189.082-.28.015-.046.03-.087.046-.128a1.978 1.978 0 01.107-.25c.02-.036.036-.077.056-.113.051-.091.107-.183.163-.275a.492.492 0 00.036-.056c.077-.108.153-.21.235-.307.026-.025.046-.051.072-.076.061-.072.127-.138.194-.2a1.192 1.192 0 01.1-.087c.066-.062.132-.113.2-.169.03-.025.066-.051.1-.076a2.878 2.878 0 01.27-.174c.019-.015.034-.029.054-.04z" fill="#fff"/><path data-name="Trazado 12443" d="M-123.344 78.567l-6.346-6.345a.765.765 0 00-.541-.225h-5.876a.765.765 0 00-.766.766v10.8h-24.055a.765.765 0 00-.766.766v4.023a.765.765 0 00.766.766h3.436a3.518 3.518 0 003.425 2.746 3.514 3.514 0 003.426-2.746h5.192a3.518 3.518 0 003.425 2.746 3.514 3.514 0 003.424-2.744h5.191a3.519 3.519 0 003.426 2.746 3.513 3.513 0 003.425-2.746h2.691a.765.765 0 00.766-.766v-9.246a.888.888 0 00-.243-.541zm-32.836 6.994c-.072.056-.138.107-.2.169a1.192 1.192 0 00-.1.087 4.542 4.542 0 00-.194.2c-.026.025-.046.051-.072.076-.082.1-.158.2-.235.307a.492.492 0 01-.036.056c-.056.092-.112.184-.163.275-.02.036-.036.077-.056.113a1.978 1.978 0 00-.107.25 2.342 2.342 0 00-.046.128c-.031.091-.056.188-.082.28-.005.026-.015.051-.02.077h-2.67V85.1h4.783c-.01 0-.015.01-.025.01a3.825 3.825 0 00-.353.168c-.02.011-.035.026-.056.036a2.878 2.878 0 00-.27.174 1.383 1.383 0 00-.098.073zm2.113 4.774a1.984 1.984 0 01-1.981-1.981 1.983 1.983 0 011.981-1.981 1.982 1.982 0 011.981 1.981 1.986 1.986 0 01-1.981 1.981zm9.919-4.774c-.071.056-.137.107-.2.169-.036.03-.066.056-.1.087-.066.066-.133.132-.194.2-.025.025-.046.051-.071.076-.082.1-.159.2-.235.307-.01.02-.026.04-.036.056-.056.092-.112.184-.163.275-.021.036-.036.077-.056.113a2.139 2.139 0 00-.108.25l-.046.128c-.03.091-.056.188-.081.28-.005.026-.016.051-.021.077h-5.181c0-.026-.016-.051-.021-.077a3.877 3.877 0 00-.127-.408 2.142 2.142 0 00-.108-.25c-.02-.041-.035-.077-.056-.118a2.4 2.4 0 00-.163-.275.2.2 0 00-.036-.057 2.648 2.648 0 00-.235-.306.989.989 0 00-.071-.076c-.061-.072-.128-.138-.194-.205l-.1-.091-.2-.169c-.036-.025-.067-.051-.1-.077a4.991 4.991 0 00-.271-.173c-.02-.01-.036-.026-.056-.036a3.808 3.808 0 00-.352-.168c-.011 0-.016-.011-.026-.011h9.419c-.01.006-.015.011-.026.011a3.808 3.808 0 00-.352.168c-.02.01-.036.026-.056.036a3.1 3.1 0 00-.271.173.664.664 0 01-.106.091zm2.114 4.774a1.983 1.983 0 01-1.981-1.981 1.982 1.982 0 011.981-1.981 1.983 1.983 0 011.981 1.981 1.984 1.984 0 01-1.981 1.981zm5.161-2.747h-1.727c0-.026-.015-.051-.02-.077a3.545 3.545 0 00-.082-.28l-.046-.128a2.043 2.043 0 00-.107-.25c-.02-.041-.035-.077-.056-.118a2.489 2.489 0 00-.163-.275.225.225 0 00-.036-.056 2.572 2.572 0 00-.235-.307.988.988 0 00-.071-.076 2.633 2.633 0 00-.194-.2c-.031-.031-.067-.062-.1-.092a5.954 5.954 0 00-.205-.169c-.035-.025-.066-.051-.1-.076a4.148 4.148 0 00-.27-.174c-.021-.01-.036-.025-.056-.036a3.827 3.827 0 00-.353-.168c-.01 0-.015-.01-.025-.01h3.849zm6.873 2.747a1.983 1.983 0 01-1.981-1.981A1.982 1.982 0 01-130 86.373a1.982 1.982 0 011.98 1.981 1.983 1.983 0 01-1.98 1.981zm3.425-2.747c0-.015-.01-.026-.015-.041a3.418 3.418 0 00-.158-.5c-.006-.01-.011-.026-.016-.036a3.411 3.411 0 00-.24-.47l-.046-.076a3.484 3.484 0 00-.306-.409.326.326 0 01-.056-.066 3.6 3.6 0 00-.378-.362.11.11 0 01-.025-.021 3.534 3.534 0 00-.424-.291.306.306 0 01-.056-.035 3.518 3.518 0 00-.47-.215l-.092-.031a3.285 3.285 0 00-.505-.132l-.087-.016a3.454 3.454 0 00-.562-.051 3.442 3.442 0 00-.561.051 1.38 1.38 0 01-.087.016 3.285 3.285 0 00-.505.132l-.092.031a3.461 3.461 0 00-.47.215.344.344 0 00-.056.035 3.533 3.533 0 00-.424.291.11.11 0 00-.025.021 4.04 4.04 0 00-.378.362.356.356 0 00-.056.066 3.491 3.491 0 00-.307.409l-.045.076a3.151 3.151 0 00-.24.47c0 .01-.011.026-.016.036a3.236 3.236 0 00-.158.5l-.015.041h-1.92V73.529h4.794l5.9 5.9v8.163z" fill="#1a70b6"/><path data-name="Trazado 12444" d="M-127.255 81.166h-5.35v-5.3a.765.765 0 00-.766-.766.765.765 0 00-.766.766v6.065a.765.765 0 00.766.765h6.116a.765.765 0 00.766-.765.765.765 0 00-.766-.765z" fill="#1a70b6"/><path data-name="Trazado 12445" d="M-160.854 82.45h22.054a.838.838 0 00.838-.838V70.293a.838.838 0 00-.838-.838h-22.056a.838.838 0 00-.838.838v11.319a.838.838 0 00.84.838zm.838-11.318h20.38v9.642h-20.38z" fill="#1a70b6"/></g></svg>