<svg xmlns="http://www.w3.org/2000/svg" width="98.426" height="98.426"><g data-name="Grupo 1615"><g data-name="Grupo 1614"><path data-name="Trazado 12446" d="M76.549 43.42a3.258 3.258 0 00-3.254 3.256 3.257 3.257 0 003.254 3.254 3.257 3.257 0 003.254-3.254 3.258 3.258 0 00-3.254-3.255z" fill="#1e5b8f"/><path data-name="Trazado 12447" d="M70.913 45.35a5.216 5.216 0 01.26-.822c.008-.016.017-.042.025-.058a5.1 5.1 0 01.394-.772l.076-.126a5.564 5.564 0 01.5-.671.6.6 0 01.092-.11 6.98 6.98 0 01.621-.6.171.171 0 01.042-.033 5.755 5.755 0 01.7-.478.592.592 0 01.092-.06 5.886 5.886 0 01.772-.351l.151-.05a5.471 5.471 0 01.83-.218l.143-.025a5.46 5.46 0 01.922-.084 5.481 5.481 0 01.923.084c.05.008.1.016.142.025a5.515 5.515 0 01.831.218l.151.05a5.934 5.934 0 01.771.352.566.566 0 00.092.059 5.688 5.688 0 01.7.478.171.171 0 00.042.034 6.026 6.026 0 01.62.6.571.571 0 00.092.109 5.572 5.572 0 01.5.67l.075.127a5.556 5.556 0 01.394.772c.009.016.017.042.025.058a5.531 5.531 0 01.26.822l.026.067h3.12V32.006l-9.687-9.687h-7.876v23.1h3.154c.008-.027.016-.044.025-.07zm-1.166-9.225V26.16a1.256 1.256 0 011.258-1.258 1.256 1.256 0 011.258 1.258v8.705h8.79a1.257 1.257 0 011.258 1.259 1.256 1.256 0 01-1.258 1.258H71.005a1.256 1.256 0 01-1.258-1.258z" fill="#fff"/><path data-name="Trazado 12448" d="M59.548 41.61c.034.016.059.042.093.058.15.093.3.185.444.286.059.042.109.083.168.125.117.093.226.185.335.277.051.05.109.1.16.15.109.11.218.219.318.337a1.688 1.688 0 01.118.125 4.673 4.673 0 01.386.5.343.343 0 01.058.092 3.891 3.891 0 01.269.453c.033.067.058.126.092.193a3.478 3.478 0 01.176.41c.025.076.05.143.076.21.05.15.092.3.134.462.008.042.025.083.033.125h2.843v-4.1h-6.323c.016 0 .025.009.042.017a6.043 6.043 0 01.578.28z" fill="#fff"/><path data-name="Rectángulo 2203" fill="#fff" d="M27.23 18.38h33.482v15.843H27.23z"/><path data-name="Trazado 12449" d="M53.518 46.676a3.257 3.257 0 003.252 3.257 3.257 3.257 0 003.254-3.254 3.258 3.258 0 00-3.254-3.255 3.258 3.258 0 00-3.252 3.252z" fill="#1e5b8f"/><path data-name="Trazado 12450" d="M39.151 41.308h15.474c-.017.008-.025.017-.042.017a6.176 6.176 0 00-.579.276c-.033.017-.058.042-.092.059a5.065 5.065 0 00-.444.285 1.254 1.254 0 01-.168.143c-.118.092-.227.176-.336.277-.058.05-.109.092-.159.142-.109.109-.218.218-.319.336-.042.042-.075.083-.117.125-.134.16-.26.328-.386.5a.922.922 0 01-.059.092c-.092.15-.184.3-.268.453-.034.058-.059.126-.092.184a3.55 3.55 0 00-.176.41 4.15 4.15 0 00-.076.21c-.05.152-.092.31-.134.462-.008.042-.025.084-.034.126h-2.456a20.026 20.026 0 011.645 1.432 19.956 19.956 0 012.437 2.896c.1.145.2.293.294.44h8.283a5.754 5.754 0 001.072-2.242h8.529a5.782 5.782 0 005.628 4.512 5.773 5.773 0 005.628-4.512h4.42a1.256 1.256 0 001.258-1.258v-15.19a1.458 1.458 0 00-.4-.89L77.057 20.17a1.255 1.255 0 00-.889-.37h-9.653a1.257 1.257 0 00-1.259 1.259v17.747H25.737a1.257 1.257 0 00-1.259 1.258v1.079h11.805c1.033.003 2.887.166 2.868.166zm28.583-1.242V22.319h7.876l9.687 9.687v13.41h-3.12l-.026-.066a5.531 5.531 0 00-.26-.822c-.008-.016-.016-.042-.025-.058a5.556 5.556 0 00-.394-.772l-.075-.126a5.572 5.572 0 00-.5-.671.571.571 0 01-.092-.11 6.026 6.026 0 00-.62-.6.171.171 0 01-.042-.033 5.688 5.688 0 00-.7-.478.566.566 0 01-.092-.06 5.934 5.934 0 00-.771-.351l-.151-.05a5.515 5.515 0 00-.831-.218c-.042-.01-.092-.017-.142-.025a5.481 5.481 0 00-.923-.084 5.46 5.46 0 00-.922.084l-.143.025a5.471 5.471 0 00-.83.218l-.151.05a5.886 5.886 0 00-.772.352.592.592 0 00-.092.059 5.755 5.755 0 00-.7.478.171.171 0 00-.042.034 6.98 6.98 0 00-.621.6.6.6 0 00-.092.109 5.564 5.564 0 00-.5.67l-.076.127a5.1 5.1 0 00-.394.772c-.008.016-.017.042-.025.058a5.216 5.216 0 00-.26.822c-.009.025-.017.042-.025.067h-3.154zm-2.483 1.25v4.1h-2.843c-.008-.042-.025-.083-.033-.125a7.57 7.57 0 00-.134-.462 4.485 4.485 0 01-.076-.21 3.478 3.478 0 00-.176-.41c-.034-.068-.059-.127-.092-.194a3.891 3.891 0 00-.269-.452.343.343 0 00-.058-.093 4.673 4.673 0 00-.386-.5 1.688 1.688 0 00-.118-.124c-.1-.118-.209-.227-.318-.336-.051-.05-.109-.1-.16-.151-.109-.093-.218-.185-.335-.278-.059-.042-.109-.083-.168-.125-.143-.1-.294-.193-.444-.286-.034-.016-.059-.042-.093-.058a6.043 6.043 0 00-.578-.277c-.017-.008-.026-.017-.042-.017z" fill="#1a70b6"/><path data-name="Trazado 12451" d="M81.053 37.383a1.256 1.256 0 001.258-1.258 1.257 1.257 0 00-1.258-1.26h-8.79v-8.704a1.256 1.256 0 00-1.258-1.258 1.256 1.256 0 00-1.258 1.258v9.964a1.256 1.256 0 001.258 1.258z" fill="#1a70b6"/><path data-name="Trazado 12452" d="M25.853 36.977h36.236a1.376 1.376 0 001.377-1.377V17a1.377 1.377 0 00-1.377-1.377H25.853A1.377 1.377 0 0024.477 17v18.6a1.376 1.376 0 001.376 1.377zm1.377-18.6h33.482v15.846H27.23z" fill="#1a70b6"/></g><path d="M1.641 39.308A1.641 1.641 0 000 40.948v33.424a1.641 1.641 0 001.641 1.64h17.955a1.641 1.641 0 001.641-1.64v-2.418L51.891 82.34c.042.011.085.022.128.031a13.721 13.721 0 0010.8-1.724l31.743-17.25h.026l.776-.442a6.022 6.022 0 002.6-7.558 5.976 5.976 0 00-4.532-3.7v-.014a6.583 6.583 0 00-2.814.213 1.519 1.519 0 00-.16.07l-17.5 8.115a6.253 6.253 0 00.07-.66 6.744 6.744 0 00-6.758-6.688H51.7c-.063-.111-.135-.27-.193-.372q-.39-.705-.846-1.365a16.643 16.643 0 00-2.064-2.455 17.042 17.042 0 00-11.955-4.84h-15.41v-2.756a1.641 1.641 0 00-1.641-1.641H1.636z" fill="#1a70b6"/><path data-name="Trazado 12453" d="M76.549 49.933a3.257 3.257 0 01-3.254-3.254 3.258 3.258 0 013.254-3.255 3.258 3.258 0 013.254 3.255 3.257 3.257 0 01-3.254 3.254z" fill="#fff"/><path data-name="Trazado 12454" d="M60.026 46.676a3.257 3.257 0 01-3.256 3.257 3.257 3.257 0 01-3.254-3.254 3.258 3.258 0 013.254-3.255 3.258 3.258 0 013.256 3.252z" fill="#fff"/><path data-name="Trazado 12455" d="M3.282 42.59h14.673v30.143H3.282z" fill="#fff"/><path data-name="Trazado 12456" d="M21.237 46.987h15.41a13.724 13.724 0 019.654 3.9 13.43 13.43 0 011.66 1.968q.366.53.68 1.1c.257.465.431.748.57 1.07l.423.994H66.27a3.4 3.4 0 013.474 3.4 3.344 3.344 0 01-2.1 3.128l-.019.007a3.639 3.639 0 01-1.353.262H43.445v3.282H66.27a6.727 6.727 0 001.962-.326 1.643 1.643 0 00.564-.142l22.9-10.621a3.2 3.2 0 011.257-.078c.7.1 1.381.296 1.987 1.732a2.681 2.681 0 01-1.2 3.423l-.769.429-31.859 17.32a1.423 1.423 0 00-.134.084 10.889 10.889 0 01-8.154 1.269h-.007l-31.589-10.7z" fill="#fff"/></g><path data-name="Rectángulo 2204" fill="none" d="M-.783-16.412h100v100h-100z"/></svg>