<svg width="29" height="29" xmlns="http://www.w3.org/2000/svg"><path data-name="Trazado 12459" d="M20.5 9.5h-2a1 1 0 000 2h2a.945.945 0 011 1v7a.945.945 0 01-1 1h-12a.945.945 0 01-1-1v-7a.945.945 0 011-1h2a1 1 0 000-2h-2a2.946 2.946 0 00-3 3v7a2.946 2.946 0 003 3h12a2.946 2.946 0 003-3v-7a2.946 2.946 0 00-3-3zm-8.3-2.3l1.3-1.3v11.6a.945.945 0 001 1 .945.945 0 001-1V5.9l1.3 1.3a.967.967 0 001.4 0 .967.967 0 000-1.4l-3-3a.967.967 0 00-1.4 0l-3 3a.99.99 0 101.4 1.4z" fill="#ff74ff"/><path data-name="Rectángulo 2207" fill="none" d="M0 0h29v29H0z"/></svg>