<svg width="24" height="24" xmlns="http://www.w3.org/2000/svg"><path data-name="Trazado 12469" d="M11.767 2.065a4.955 4.955 0 104.95 4.958 4.972 4.972 0 00-4.95-4.958zm0 1.652A3.3 3.3 0 118.46 7.023a3.288 3.288 0 013.307-3.306zm0 9.912a11.561 11.561 0 00-6.927 2.232 6.747 6.747 0 00-2.99 5.2.826.826 0 00.826.826H20.85a.826.826 0 00.826-.826 6.747 6.747 0 00-2.99-5.2 11.561 11.561 0 00-6.923-2.23zm0 1.652a9.962 9.962 0 015.928 1.9 5.447 5.447 0 012.084 3.058H3.75a5.447 5.447 0 012.085-3.058 9.962 9.962 0 015.928-1.9z" fill="#1a70b6"/><path data-name="Rectángulo 2217" fill="none" d="M0 0h24v24H0z"/></svg>