<svg width="18" height="18" xmlns="http://www.w3.org/2000/svg"><path data-name="Rectángulo 113" fill="none" d="M0 0h18v18H0z"/><g data-name="Grupo 511" fill="#87f13c"><path data-name="Trazado 1009" d="M14.162 11.145a4.489 4.489 0 00-2.179-1.278 5.888 5.888 0 00-1.429-.135H7.606a5.642 5.642 0 00-1.465.151 4.5 4.5 0 00-3.27 3.567 10.842 10.842 0 00-.072 1.707 2.209 2.209 0 00.08.788 1.557 1.557 0 00.607.768 1.465 1.465 0 00.775.223H13.946a1.489 1.489 0 001.387-1.051 2.618 2.618 0 00.058-.763 9.982 9.982 0 00-.082-1.726 4.475 4.475 0 00-1.147-2.251zm-1.212 4.459H4.268l-.048-.013-.043-.025-.013-.013-.025-.043c-.008-.015-.008-.024-.01-.037-.011-.167 0-.339 0-.506v-.711a4.152 4.152 0 01.028-.442 3.165 3.165 0 01.638-1.525 3.949 3.949 0 01.565-.566 3.928 3.928 0 01.708-.415 3.935 3.935 0 01.828-.225c.213-.021.424-.025.639-.025h3.041c.242 0 .483 0 .725.026a3.84 3.84 0 01.824.224 3.871 3.871 0 01.708.415 3.19 3.19 0 01.981 1.273 3.956 3.956 0 01.225.827c.021.218.026.435.026.654v.822c0 .06 0 .12-.005.179l-.009.029-.024.043-.013.013-.042.025-.049.013z"/><path data-name="Trazado 1010" d="M7.401 8.788a4.473 4.473 0 00.637.241 4.385 4.385 0 00.663.12 3.917 3.917 0 001.23-.066 3.959 3.959 0 003.056-3.184 4.549 4.549 0 00.06-.666.188.188 0 000-.02 3.92 3.92 0 00-.706-2.258 4.556 4.556 0 00-.411-.5 4.24 4.24 0 00-.49-.422 3.9 3.9 0 00-1.037-.552 3.967 3.967 0 00-4.327 1.174 4.455 4.455 0 00-.386.535 4.108 4.108 0 00-.282.59 3.945 3.945 0 001.993 5.007zm-.912-3.922a3.4 3.4 0 01.182-.671 3.326 3.326 0 01.346-.592 3.389 3.389 0 01.47-.469 3.39 3.39 0 01.593-.346 3.38 3.38 0 01.67-.182 3.35 3.35 0 01.691 0 3.486 3.486 0 01.671.182 3.365 3.365 0 01.592.346 3.389 3.389 0 01.469.47 3.351 3.351 0 01.346.593 3.373 3.373 0 01.181.669c.011.115.021.23.023.346a3.353 3.353 0 01-.023.346 3.44 3.44 0 01-.181.671 3.338 3.338 0 01-.346.591 3.355 3.355 0 01-.469.47 3.34 3.34 0 01-.593.346 3.38 3.38 0 01-.67.182 3.35 3.35 0 01-.691 0 3.386 3.386 0 01-.671-.182 3.349 3.349 0 01-.592-.346 3.355 3.355 0 01-.469-.47 3.351 3.351 0 01-.346-.593 3.38 3.38 0 01-.182-.67 3.35 3.35 0 01-.001-.691z"/></g></svg>